<?xml version="1.0" standalone="no"?>
<!DOCTYPE svg PUBLIC "-//W3C//DTD SVG 20010904//EN" "http://www.w3.org/TR/2001/REC-SVG-20010904/DTD/svg10.dtd">
<!-- Created using Krita: http://krita.org -->
<svg xmlns="http://www.w3.org/2000/svg" 
    xmlns:xlink="http://www.w3.org/1999/xlink"
    xmlns:krita="http://krita.org/namespaces/svg/krita"
    xmlns:sodipodi="http://sodipodi.sourceforge.net/DTD/sodipodi-0.dtd"
    width="174.96pt"
    height="136.8pt"
    viewBox="0 0 174.96 136.8">
<defs/>
<path id="shape0" transform="matrix(0.99999993375 0 0 0.99999994347 121.20199197 0.21905089858)" fill="none" stroke="#ffffff" stroke-width="3.6" stroke-linecap="square" stroke-linejoin="bevel" d="M9.328 48.201C14.444 44.4772 20.089 41.1028 26.951 37.7171C28.741 35.1732 32.025 34.3843 36.073 34.4927C39.609 34.3274 41.983 34.8463 43.519 35.9047C44.208 36.1816 45.011 36.2396 45.661 36.3714C47.749 36.2374 49.551 35.5415 51.473 34.8016C52.684 33.2165 53.275 31.3934 53.758 29.5288C53.477 27.9135 53.307 24.6343 47.188 23.2192C44.049 23.1617 42.196 22.9142 41.631 22.4767C41.17 21.5831 40.937 21.3588 41.206 20.61C44.682 15.0947 41.758 9.27105 39 5.60029C37.342 3.55065 34.946 0.332645 31.533 0C28.73 0.385944 26.631 2.66447 25.042 7.46705C23.977 9.01887 23.55 11.9027 22.858 14.5086C21.705 17.3975 19.641 20.5775 17.818 22.3986C12.843 27.3682 6.42 30.7824 0 33.8387"/><path id="shape01" transform="matrix(0.99999996163 0 0 0.99999998654 -0.063639609829 34.057797016)" fill="#ffffff" fill-rule="evenodd" stroke="#ffffff" stroke-width="3.6" stroke-linecap="square" stroke-linejoin="bevel" d="M121.202 0C118.301 1.38072 115.431 2.74539 112.642 4.04804C102.623 8.41656 92.2803 10.9206 80.3132 12.0666C63.0028 10.9102 48.7475 13.3285 37.5474 19.3215C25.8774 24.3449 16.69 31.1526 10.1399 39.8559C1.4201 52.055 0.696255 62.9717 0 71.5909C0.473947 83.7187 4.0612 87.2873 8.1883 92.4647C16.0245 99.9224 25.8132 101.819 36.2746 101.798C50.475 101.972 61.8691 97.2781 72.1673 90.6828C82.4042 83.227 91.4902 73.2227 97.1565 60.6873C101.904 50.8534 107.837 40.1875 116.333 27.722C119.89 22.6436 124.589 17.9997 130.546 14.3613C124.721 13.242 125.469 13.4371 117.96 13.8222C119.331 11.4975 121.228 6.59851 121.202 0Z"/><path id="shape1" transform="matrix(0.99999996163 0 0 0.99999998654 156.72845655 27.627131019)" fill="#ffffff" fill-rule="evenodd" stroke="#ffffff" stroke-width="1.44" stroke-linecap="square" stroke-linejoin="bevel" d="M0 3.14971C3.47459 2.06744 5.07047 0.171935 10.7333 0.00343944C13.6149 -0.0823035 13.9753 1.45445 14.7065 2.44854C12.9287 2.11481 11.5392 1.44083 9.24103 1.49567C7.39423 1.53973 4.24908 1.93467 0 3.14971Z"/><rect id="shape2" transform="matrix(0.99999996163 0 0 0.99999998654 19.199999263 -5.0399999322)" fill="none" stroke="#ffffff" stroke-width="0.24" stroke-linecap="square" stroke-linejoin="bevel" width="0.24" height="1e-06"/>
</svg>
